<svg width="38" height="35" viewBox="0 0 38 35" fill="none" xmlns="http://www.w3.org/2000/svg">
<path d="M37.1437 19.5591C38.2854 18.4202 38.2854 16.5707 37.1437 15.4318L22.5301 0.854158C21.3884 -0.284719 19.5343 -0.284719 18.3926 0.854158C17.2509 1.99304 17.2509 3.84257 18.3926 4.98145L30.9421 17.5L18.4018 30.0185C17.2601 31.1574 17.2601 33.007 18.4018 34.1458C19.5434 35.2847 21.3975 35.2847 22.5392 34.1458L37.1529 19.5682L37.1437 19.5591ZM4.99375 34.1367L19.6074 19.5591C20.7491 18.4202 20.7491 16.5707 19.6074 15.4318L4.99375 0.854158C3.85206 -0.284719 1.99796 -0.284719 0.856267 0.854158C-0.285422 1.99304 -0.285422 3.84257 0.856267 4.98145L13.4057 17.5L0.865401 30.0185C-0.276289 31.1574 -0.276289 33.007 0.865401 34.1458C2.00709 35.2847 3.86119 35.2847 5.00288 34.1458L4.99375 34.1367Z" fill="#FBC027"/>
</svg>
