<svg width="60" height="60" viewBox="0 0 60 44" fill="none" xmlns="http://www.w3.org/2000/svg">
<path d="M5.31216 1.94186L5.31218 1.94187L5.3146 1.9368C5.41543 1.72564 5.64399 1.60107 5.87454 1.62933L5.87453 1.62937L5.88365 1.6304L28.3297 4.17299L21.1064 16.5334L21.1052 16.5355C20.6237 17.364 19.6373 17.7678 18.7117 17.513L18.7101 17.5126L2.68966 13.1308L2.68877 13.1306C1.40123 12.7797 0.752589 11.344 1.33736 10.1467L1.33875 10.1438L5.31216 1.94186ZM31.6241 4.1349L53.9998 1.07481C54.0005 1.07472 54.0012 1.07463 54.0019 1.07455C54.2445 1.04361 54.4809 1.17228 54.5842 1.37309L58.756 9.48089L58.757 9.48287C59.3677 10.6632 58.7476 12.1166 57.4738 12.4975C57.4737 12.4976 57.4737 12.4976 57.4736 12.4976L41.5496 17.2485L41.5478 17.249C40.6284 17.5252 39.6329 17.1442 39.1324 16.3271L39.1311 16.325L31.6241 4.1349ZM25.5408 19.1148L30.061 11.3741L34.7677 19.0088L34.7678 19.0089C36.4893 21.8006 39.8726 23.1007 43.0272 22.1566L54.1818 18.8321L54.3552 33.8362C54.3748 35.5271 53.2385 37.0201 51.5927 37.4557L31.6955 42.6726L31.691 42.6738C30.8573 42.8966 29.9817 42.9061 29.156 42.7037L29.1491 42.7021L9.14089 37.9475C9.13996 37.9473 9.13902 37.9471 9.13809 37.9468C7.47959 37.5396 6.31063 36.0712 6.2911 34.3821L6.11765 19.3787L17.3551 22.4531C17.3555 22.4532 17.356 22.4534 17.3565 22.4535C17.3565 22.4535 17.3566 22.4535 17.3566 22.4535C20.5224 23.3243 23.8841 21.9459 25.5404 19.1155L25.5408 19.1148Z" fill="#FBC027" stroke="white" stroke-width="2"/>
</svg>
