<svg width="60 " height="60" viewBox="0 0 87 87" fill="none" xmlns="http://www.w3.org/2000/svg">
<path d="M62.5117 16.815C63.4719 17.5289 64.403 18.3041 65.2793 19.1193C65.6131 19.4299 66.0366 19.5836 66.4593 19.5836C66.9238 19.5836 67.3872 19.398 67.7286 19.0311C68.3806 18.3304 68.3411 17.2337 67.6402 16.5818C66.6713 15.6802 65.6415 14.8229 64.5795 14.0333C63.8112 13.4622 62.7256 13.6219 62.1547 14.3903C61.5837 15.1584 61.7435 16.244 62.5117 16.815Z" fill="white"/>
<path d="M14.9042 37.3003C9.86601 37.3003 5.7673 41.3992 5.7673 46.4372C5.7673 51.4754 9.86601 55.5743 14.9042 55.5743C19.9424 55.5743 24.0411 51.4754 24.0411 46.4372C24.0411 41.399 19.9424 37.3003 14.9042 37.3003ZM14.9042 52.108C11.7774 52.108 9.23344 49.564 9.23344 46.437C9.23344 43.3102 11.7774 40.7663 14.9042 40.7663C18.031 40.7663 20.575 43.3102 20.575 46.437C20.575 49.5642 18.0312 52.108 14.9042 52.108Z" fill="white"/>
<path d="M52.2811 14.904C52.2811 9.8658 48.1822 5.76709 43.1442 5.76709C38.106 5.76709 34.0071 9.8658 34.0071 14.904C34.0071 19.9422 38.1062 24.0409 43.1442 24.0409C48.1822 24.0409 52.2811 19.9422 52.2811 14.904ZM37.4732 14.904C37.4732 11.7772 40.0172 9.23323 43.1442 9.23323C46.271 9.23323 48.815 11.7772 48.815 14.904C48.815 18.0308 46.271 20.5748 43.1442 20.5748C40.0172 20.5748 37.4732 18.0308 37.4732 14.904Z" fill="white"/>
<path d="M78.8005 47.9347C79.0251 46.2998 79.1405 44.6379 79.1405 42.9801C79.1405 35.0085 76.591 27.4537 71.7675 21.1322C71.1868 20.3712 70.0993 20.2251 69.3385 20.8057C68.5775 21.3864 68.4314 22.4737 69.012 23.2347C73.3706 28.9469 75.6744 35.7749 75.6744 42.9801C75.6744 44.1554 75.6105 45.3327 75.4855 46.4987C74.1512 46.1057 72.7412 45.8909 71.2812 45.8909C63.063 45.8909 56.377 52.5769 56.377 60.7952C56.377 63.1783 57.5453 66.5727 59.8563 70.923C54.8036 73.9613 49.0378 75.5618 43.0927 75.5618C34.4846 75.5618 26.4572 72.2816 20.341 66.2997C21.1675 65.0881 22.0588 63.744 22.9547 62.3268C27.5024 55.1329 29.8084 49.7869 29.8084 46.437C29.8084 38.2188 23.1224 31.5328 14.9042 31.5328C14.0881 31.5328 13.2881 31.6014 12.5072 31.7281C15.3321 24.0687 21.0003 17.6858 28.2731 13.9593C28.2533 14.2722 28.24 14.5865 28.24 14.9042C28.24 18.2541 30.546 23.6 35.0938 30.794C38.3902 36.0085 41.6319 40.2517 41.7683 40.4299C42.0962 40.8581 42.6049 41.1091 43.1442 41.1091C43.6835 41.1091 44.1922 40.8579 44.5201 40.4297C44.6565 40.2517 47.8982 36.0085 51.1946 30.794C55.7426 23.6 58.0484 18.2541 58.0484 14.9042C58.0484 6.686 51.3624 0 43.1442 0C36.7469 0 31.2794 4.05209 29.17 9.72372C19.1374 13.9304 11.4507 22.5626 8.44732 33.0054C3.45348 35.4156 0 40.5306 0 46.437C0 49.7869 2.30602 55.1329 6.85376 62.3268C10.1502 67.5413 13.3919 71.7845 13.5283 71.9627C13.8562 72.3909 14.3649 72.6419 14.9042 72.6419C15.4435 72.6419 15.9522 72.3908 16.2801 71.9627C16.3465 71.876 17.1473 70.8275 18.3305 69.1758C21.3407 72.0266 24.7817 74.3155 28.5866 75.99C33.1676 78.0057 38.0483 79.0279 43.0927 79.0279C49.6358 79.0279 55.9838 77.2746 61.5551 73.9455C62.0752 74.8268 62.6331 75.7394 63.2308 76.685C66.5273 81.8994 69.769 86.1427 69.9054 86.3208C70.2333 86.7491 70.7419 87 71.2812 87C71.8206 87 72.3292 86.7489 72.6571 86.3208C72.7935 86.1427 76.0352 81.8996 79.3317 76.685C83.8794 69.491 86.1855 64.145 86.1855 60.7952C86.1855 55.3183 83.2139 50.5252 78.8005 47.9347ZM43.1442 3.46614C49.4512 3.46614 54.5823 8.59723 54.5823 14.9042C54.5823 19.7776 47.2712 30.816 43.1442 36.4767C39.0172 30.816 31.7061 19.7776 31.7061 14.9042C31.7061 8.59723 36.8372 3.46614 43.1442 3.46614ZM14.9042 68.0094C10.7773 62.3487 3.46614 51.3102 3.46614 46.437C3.46614 40.1301 8.59723 34.999 14.9042 34.999C21.2112 34.999 26.3423 40.1301 26.3423 46.437C26.3423 51.3102 19.0312 62.3487 14.9042 68.0094ZM71.2812 82.3677C67.1543 76.707 59.8432 65.6685 59.8432 60.7952C59.8432 54.4882 64.9743 49.3571 71.2812 49.3571C77.5882 49.3571 82.7193 54.4882 82.7193 60.7952C82.7193 65.6685 75.4082 76.7068 71.2812 82.3677Z" fill="white"/>
<path d="M71.2813 51.6582C66.2431 51.6582 62.1443 55.7569 62.1443 60.7951C62.1443 65.8333 66.2431 69.932 71.2813 69.932C76.3195 69.932 80.4182 65.8333 80.4182 60.7951C80.4182 55.7569 76.3195 51.6582 71.2813 51.6582ZM71.2813 66.4659C68.1545 66.4659 65.6105 63.9219 65.6105 60.7951C65.6105 57.6683 68.1545 55.1243 71.2813 55.1243C74.4081 55.1243 76.952 57.6683 76.952 60.7951C76.952 63.9219 74.4081 66.4659 71.2813 66.4659Z" fill="white"/>
</svg>
