<svg width="38" height="31" viewBox="0 0 38 31" fill="none" xmlns="http://www.w3.org/2000/svg">
<g clip-path="url(#clip0_147_200)">
<path d="M22.3 2.90625C22.3 1.56864 21.2381 0.5 19.95 0.5L2.85 0.5C1.56187 0.5 0.5 1.56864 0.5 2.90625L0.5 28.0937C0.5 29.4314 1.56187 30.5 2.85 30.5L14.7303 30.5C14.71 30.3457 14.7 30.1891 14.7 30.0312L14.7 15.6666C13.5752 15.1151 12.8 13.9436 12.8 12.5937V10.6562C12.8 8.78487 14.2913 7.25 16.15 7.25L22.3 7.25V2.90625ZM3.72207 21.378C3.16327 20.8082 3.16327 19.8793 3.72207 19.3095L7.52207 15.4345C8.08622 14.8592 9.01378 14.8592 9.57793 15.4345L13.3779 19.3095C13.9367 19.8793 13.9367 20.8082 13.3779 21.378C12.8138 21.9533 11.8862 21.9533 11.3221 21.378L10 20.0298V26.1562C10 26.9559 9.35781 27.625 8.55 27.625C7.74219 27.625 7.1 26.9559 7.1 26.1562V20.0298L5.77793 21.378C5.21378 21.9533 4.28622 21.9533 3.72207 21.378ZM37.5 10.6562C37.5 10.3903 37.2872 10.1875 37.05 10.1875L16.15 10.1875C15.9128 10.1875 15.7 10.3903 15.7 10.6562V12.5937C15.7 12.8597 15.9128 13.0625 16.15 13.0625L37.05 13.0625C37.2872 13.0625 37.5 12.8597 37.5 12.5938V10.6562ZM17.6 16L17.6 29.0625C17.6 29.8673 18.2344 30.5 19 30.5L34.2 30.5C34.9656 30.5 35.6 29.8673 35.6 29.0625L35.6 16L17.6 16ZM29.45 18.875C30.2578 18.875 30.9 19.5441 30.9 20.3438C30.9 21.1434 30.2578 21.8125 29.45 21.8125L23.75 21.8125C22.9422 21.8125 22.3 21.1434 22.3 20.3437C22.3 19.5441 22.9422 18.875 23.75 18.875L29.45 18.875Z" fill="white" stroke="#FBC027"/>
</g>
<defs>
<clipPath id="clip0_147_200">
<rect width="38" height="31" fill="white" transform="matrix(-1 0 0 1 38 0)"/>
</clipPath>
</defs>
</svg>
