<svg width="60" height="60" viewBox="0 0 67 54" fill="none" xmlns="http://www.w3.org/2000/svg">
<path d="M15.075 15.875C11.0071 15.875 7.7 12.554 7.7 8.4375C7.7 4.32104 11.0071 1 15.075 1C19.1429 1 22.45 4.32104 22.45 8.4375C22.45 12.554 19.1429 15.875 15.075 15.875ZM53.6 15.875C49.5321 15.875 46.225 12.554 46.225 8.4375C46.225 4.32104 49.5321 1 53.6 1C57.6679 1 60.975 4.32104 60.975 8.4375C60.975 12.554 57.6679 15.875 53.6 15.875ZM1 31.5035C1 25.8367 5.56334 21.25 11.1702 21.25H15.6403C16.8939 21.25 18.0951 21.4798 19.2075 21.8967C19.1413 22.4668 19.1105 23.0453 19.1105 23.625C19.1105 27.0816 20.3168 30.2566 22.3205 32.75H2.22984C1.56428 32.75 1 32.1922 1 31.5035ZM47.8895 23.625C47.8895 23.0361 47.8528 22.4604 47.7872 21.895C48.897 21.4748 50.0998 21.25 51.3597 21.25H55.8298C61.4367 21.25 66 25.8367 66 31.5035C66 32.1997 65.4388 32.75 64.7702 32.75H44.6835C46.6907 30.2555 47.8895 27.0802 47.8895 23.625ZM42.55 23.625C42.55 28.6696 38.4892 32.75 33.5 32.75C28.5108 32.75 24.45 28.6696 24.45 23.625C24.45 18.5804 28.5108 14.5 33.5 14.5C38.4892 14.5 42.55 18.5804 42.55 23.625ZM14.4 51.184C14.4 43.9667 20.2091 38.125 27.3548 38.125H39.6452C46.7909 38.125 52.6 43.9667 52.6 51.184C52.6 52.1916 51.7925 53 50.8048 53H16.1952C15.2131 53 14.4 52.1972 14.4 51.184Z" stroke="white" stroke-width="2"/>
</svg>
