<svg width="40" height="32" viewBox="0 0 40 32" fill="none" xmlns="http://www.w3.org/2000/svg">
<path d="M8.64625 14.7527L8.49978 14.8991V15.1062V19.175V19.3821L8.64622 19.5286L11.8337 22.7161C12.2043 23.0866 12.4482 23.5599 12.5312 24.0735L12.5316 24.0762L13.4816 29.7572C13.6174 30.572 13.0643 31.3459 12.2488 31.4818C11.4341 31.6176 10.6602 31.0645 10.5242 30.2491C10.5242 30.2491 10.5242 30.2491 10.5242 30.2491L9.63049 24.8804L9.60417 24.7223L9.49083 24.6089L4.52833 19.6464C3.8715 18.9896 3.49978 18.0978 3.49978 17.1688V11.6625C3.49978 9.91364 4.91342 8.5 6.66228 8.5C8.00103 8.5 9.24532 9.16622 9.99033 10.2778C9.99044 10.278 9.99054 10.2782 9.99064 10.2783L12.9525 14.7211L13.0267 14.8325L13.1467 14.8918L13.7779 15.2043L14.4998 15.5617V14.7563V10C14.4998 9.16989 15.1697 8.5 15.9998 8.5H23.9998C24.8299 8.5 25.4998 9.16989 25.4998 10V14.7625V15.5679L26.2216 15.2106L26.8529 14.8981L26.973 14.8386L27.0472 14.7271L30.0097 10.2771L30.0099 10.2769C30.7478 9.1672 31.9973 8.5 33.3373 8.5C35.0861 8.5 36.4998 9.91364 36.4998 11.6625V17.1688C36.4998 18.0998 36.1329 18.991 35.4775 19.6464L30.515 24.6089L30.4016 24.7223L30.3753 24.8804L29.4816 30.2491C29.3457 31.0645 28.5718 31.6176 27.757 31.4818C26.9416 31.3459 26.3885 30.5721 26.5242 29.7575C26.5242 29.7574 26.5242 29.7573 26.5242 29.7572L27.4742 24.0762L27.4746 24.0735C27.5576 23.5599 27.8016 23.0866 28.1721 22.7161L31.3596 19.5286L31.506 19.3821V19.175V15.1062V13.4549L30.59 14.8289L29.4025 16.6101L29.4007 16.6129C29.163 16.9746 28.8315 17.2652 28.4411 17.4578L28.4387 17.459L24.7137 19.3215L24.7063 19.3252L24.6991 19.3291C24.5936 19.3863 24.4816 19.4273 24.3538 19.4557L24.3538 19.4556L24.3498 19.4566C24.2242 19.4855 24.1 19.4984 23.9877 19.4941L23.9781 19.4937H23.9685H16.0435H16.0335L16.0235 19.4941C15.9201 19.4983 15.8063 19.4863 15.6746 19.4601C15.5423 19.4325 15.4225 19.3877 15.3128 19.3262L15.3028 19.3206L15.2924 19.3154L11.5737 17.4529L11.571 17.4516C11.1864 17.2618 10.8571 16.9666 10.6081 16.6017C10.6076 16.6011 10.6072 16.6004 10.6068 16.5998L9.42205 14.8226L9.08377 14.3152L8.6525 14.7464L8.64625 14.7527ZM0.607375 29.4429L0.607765 29.4419L3.31365 22.6772L5.61934 24.9829L3.39218 30.5508C3.39211 30.551 3.39204 30.5512 3.39197 30.5513C3.08164 31.3217 2.20951 31.6947 1.4427 31.3862C0.670975 31.0756 0.299131 30.2089 0.607375 29.4429ZM36.6877 22.6817L39.3918 29.4419L39.3922 29.4429C39.7009 30.2099 39.3275 31.0823 38.5569 31.3924C37.7899 31.7011 36.9175 31.3277 36.6074 30.5571L34.3802 24.9892L36.6877 22.6817ZM10.4998 3C10.4998 4.38011 9.37989 5.5 7.99978 5.5C6.61967 5.5 5.49978 4.38011 5.49978 3C5.49978 1.61989 6.61967 0.5 7.99978 0.5C9.37989 0.5 10.4998 1.61989 10.4998 3ZM31.9998 5.5C30.6197 5.5 29.4998 4.38011 29.4998 3C29.4998 1.61989 30.6197 0.5 31.9998 0.5C33.3799 0.5 34.4998 1.61989 34.4998 3C34.4998 4.38011 33.3799 5.5 31.9998 5.5Z" fill="white" stroke="#FBC027"/>
</svg>
