<svg width="39" height="44" viewBox="0 0 39 44" fill="none" xmlns="http://www.w3.org/2000/svg">
<path d="M4.57143 19.25V20.25H5.57143H11.1429C13.6758 20.25 15.7143 22.2808 15.7143 24.75V30.25C15.7143 32.7192 13.6758 34.75 11.1429 34.75H5.57143C3.03852 34.75 1 32.7192 1 30.25V27.5V24.75V18.5625C1 13.4293 5.21486 9.25 10.4464 9.25H11.1429C12.1436 9.25 12.9286 10.0433 12.9286 11C12.9286 11.9567 12.1436 12.75 11.1429 12.75H10.4464C7.21639 12.75 4.57143 15.3426 4.57143 18.5625V19.25ZM26.8571 19.25V20.25H27.8571H33.4286C35.9615 20.25 38 22.2808 38 24.75V30.25C38 32.7192 35.9615 34.75 33.4286 34.75H27.8571C25.3242 34.75 23.2857 32.7192 23.2857 30.25V27.5V24.75V18.5625C23.2857 13.4293 27.5006 9.25 32.7321 9.25H33.4286C34.4293 9.25 35.2143 10.0433 35.2143 11C35.2143 11.9567 34.4293 12.75 33.4286 12.75H32.7321C29.5021 12.75 26.8571 15.3426 26.8571 18.5625V19.25Z" fill="white" stroke="#FBC027" stroke-width="2"/>
</svg>
