<svg width="17" height="15" viewBox="0 0 17 15" fill="none" xmlns="http://www.w3.org/2000/svg">
<g clip-path="url(#clip0_194_32)">
<path d="M8.90314 0.745678L8.90389 0.747213L10.8016 4.62319L10.9175 4.85986L11.1782 4.89804L15.4182 5.51896C15.4184 5.51899 15.4186 5.51901 15.4187 5.51904C15.5866 5.54424 15.7234 5.66037 15.7759 5.81808C15.8271 5.9718 15.7859 6.14458 15.667 6.26125L15.6668 6.26144L12.5915 9.28195L12.405 9.46514L12.449 9.72284L13.1777 13.99C13.1778 13.9901 13.1778 13.9903 13.1778 13.9904C13.2046 14.151 13.138 14.3174 12.9974 14.4188C12.8629 14.516 12.6802 14.5298 12.5255 14.4492C12.5252 14.449 12.5249 14.4489 12.5246 14.4487L8.74004 12.443L8.5059 12.3189L8.27176 12.443L4.48724 14.4487C4.48693 14.4489 4.48663 14.449 4.48632 14.4492C4.33428 14.5284 4.1499 14.5153 4.01168 14.4169C3.87552 14.32 3.8069 14.1531 3.83398 13.9905C3.83401 13.9904 3.83404 13.9902 3.83407 13.99L4.55993 9.72251L4.60374 9.46499L4.41737 9.28195L1.34203 6.26144L1.34183 6.26125C1.22528 6.1469 1.18257 5.97344 1.23415 5.81432C1.28339 5.66239 1.41948 5.54465 1.59011 5.51904C1.59029 5.51902 1.59047 5.51899 1.59065 5.51896L5.82771 4.89804L6.08841 4.85983L6.20427 4.62319L8.10114 0.748993C8.10126 0.748752 8.10138 0.748511 8.1015 0.74827C8.17692 0.596432 8.33089 0.5 8.50295 0.5C8.67775 0.5 8.83177 0.598632 8.90314 0.745678Z" fill="white" stroke="#FBC027"/>
</g>
<defs>
<clipPath id="clip0_194_32">
<rect width="17" height="15" fill="white"/>
</clipPath>
</defs>
</svg>
