<svg width="17" height="15" viewBox="0 0 17 15" fill="none" xmlns="http://www.w3.org/2000/svg">
<g clip-path="url(#clip0_194_30)">
<path d="M9.35297 0.527344C9.19654 0.205078 8.86599 0 8.50297 0C8.13995 0 7.81234 0.205078 7.65297 0.527344L5.75522 4.40332L1.51703 5.02441C1.16286 5.07715 0.867724 5.32324 0.758522 5.66016C0.649321 5.99707 0.737862 6.36914 0.991682 6.61816L4.06703 9.63867L3.34099 13.9072C3.28196 14.2588 3.42953 14.6162 3.72172 14.8242C4.0139 15.0322 4.40054 15.0586 4.71929 14.8916L8.50592 12.8848L12.2926 14.8916C12.6113 15.0586 12.9979 15.0352 13.2901 14.8242C13.5823 14.6133 13.7299 14.2588 13.6708 13.9072L12.9419 9.63867L16.0172 6.61816C16.271 6.36914 16.3625 5.99707 16.2504 5.66016C16.1382 5.32324 15.846 5.07715 15.4919 5.02441L11.2507 4.40332L9.35297 0.527344Z" fill="#FBC027"/>
</g>
<defs>
<clipPath id="clip0_194_30">
<rect width="17" height="15" fill="white"/>
</clipPath>
</defs>
</svg>
