<svg width="40" height="32" viewBox="0 0 40 32" fill="none" xmlns="http://www.w3.org/2000/svg">
<g clip-path="url(#clip0_147_203)">
<path d="M4.5 26V25.5H4H3C1.61989 25.5 0.5 24.3801 0.5 23V3C0.5 1.61989 1.61989 0.5 3 0.5H23C24.3801 0.5 25.5 1.61989 25.5 3V6V6.5H26H29.1688C30.0998 6.5 30.991 6.86689 31.6464 7.5223L36.4777 12.3536C37.1331 13.009 37.5 13.9002 37.5 14.8313V16V18V22V22.5H38C38.8301 22.5 39.5 23.1699 39.5 24C39.5 24.8301 38.8301 25.5 38 25.5H36H35.5V26C35.5 29.0364 33.0364 31.5 30 31.5C26.9636 31.5 24.5 29.0364 24.5 26V25.5H24H16H15.5V26C15.5 29.0364 13.0364 31.5 10 31.5C6.96364 31.5 4.5 29.0364 4.5 26ZM26 9.5H25.5V10V16V16.5H26H34H34.5V16V14.8313V14.6241L34.3536 14.4777L29.5223 9.64645L29.3759 9.5H29.1688H26ZM10 29.5C11.9324 29.5 13.5 27.9324 13.5 26C13.5 24.0676 11.9324 22.5 10 22.5C8.06761 22.5 6.5 24.0676 6.5 26C6.5 27.9324 8.06761 29.5 10 29.5ZM26.5 26C26.5 27.9324 28.0676 29.5 30 29.5C31.9324 29.5 33.5 27.9324 33.5 26C33.5 24.0676 31.9324 22.5 30 22.5C28.0676 22.5 26.5 24.0676 26.5 26Z" fill="white" stroke="#FBC027"/>
</g>
<defs>
<clipPath id="clip0_147_203">
<rect width="40" height="32" fill="white"/>
</clipPath>
</defs>
</svg>
