<svg width="60" height="60" viewBox="0 0 70 56" fill="none" xmlns="http://www.w3.org/2000/svg">
<g clip-path="url(#clip0_159_215)">
<path d="M8 45.5V44.5H7H5.25C2.90385 44.5 1 42.5962 1 40.25V5.25C1 2.90385 2.90385 1 5.25 1H40.25C42.5962 1 44.5 2.90385 44.5 5.25V10.5V11.5H45.5H51.0453C52.6418 11.5 54.1696 12.1291 55.2929 13.2524L63.7476 21.7071C64.8709 22.8304 65.5 24.3582 65.5 25.9547V28V31.5V38.5V39.5H66.5C67.8837 39.5 69 40.6163 69 42C69 43.3837 67.8837 44.5 66.5 44.5H63H62V45.5C62 50.7446 57.7446 55 52.5 55C47.2554 55 43 50.7446 43 45.5V44.5H42H28H27V45.5C27 50.7446 22.7446 55 17.5 55C12.2554 55 8 50.7446 8 45.5ZM45.5 16.5H44.5V17.5V28V29H45.5H59.5H60.5V28V25.9547V25.5405L60.2071 25.2476L51.7524 16.7929L51.4595 16.5H51.0453H45.5ZM17.5 51.75C20.9507 51.75 23.75 48.9507 23.75 45.5C23.75 42.0493 20.9507 39.25 17.5 39.25C14.0493 39.25 11.25 42.0493 11.25 45.5C11.25 48.9507 14.0493 51.75 17.5 51.75ZM46.25 45.5C46.25 48.9507 49.0493 51.75 52.5 51.75C55.9507 51.75 58.75 48.9507 58.75 45.5C58.75 42.0493 55.9507 39.25 52.5 39.25C49.0493 39.25 46.25 42.0493 46.25 45.5Z" stroke="white" stroke-width="2"/>
</g>
<defs>
<clipPath id="clip0_159_215">
<rect width="70" height="56" fill="white"/>
</clipPath>
</defs>
</svg>
