<svg width="37" height="28" viewBox="0 0 37 28" fill="none" xmlns="http://www.w3.org/2000/svg">
<path d="M2.49967 6.413L2.4999 6.41291L17.9879 0.594383L17.991 0.593189C18.3144 0.469222 18.6791 0.468394 19.011 0.593964L19.0121 0.594372L34.5001 6.41291L34.5003 6.413C35.7236 6.87185 36.5 7.97645 36.5 9.17194V26.3776C36.5 26.7952 36.135 27.1815 35.6125 27.1815H32.8375C32.315 27.1815 31.95 26.7952 31.95 26.3776V12.035C31.95 10.7685 30.8697 9.79653 29.6 9.79653H7.4C6.13031 9.79653 5.05 10.7685 5.05 12.035V26.3776C5.05 26.7952 4.685 27.1815 4.1625 27.1815H1.3875C0.865001 27.1815 0.5 26.7952 0.5 26.3776V9.17194C0.5 7.97147 1.276 6.87202 2.49967 6.413ZM28.2125 27.1815H8.7875C8.265 27.1815 7.9 26.7952 7.9 26.3776V23.8353H29.1V26.3776C29.1 26.7952 28.735 27.1815 28.2125 27.1815ZM7.9 21.0968V18.6198H29.1V21.0968H7.9ZM7.9 15.8813V12.535H29.1V15.8813H7.9Z" stroke="#FBC027"/>
</svg>
